<mxfile host="app.diagrams.net" agent="Mozilla/5.0 (X11; Ubuntu; Linux x86_64; rv:129.0) Gecko/20100101 Firefox/129.0" version="24.7.7">
  <diagram id="Juko1HGyohxvZJuSf1w5" name="Page-1">
    <mxGraphModel dx="720" dy="515" grid="1" gridSize="10" guides="1" tooltips="1" connect="1" arrows="1" fold="1" page="1" pageScale="1" pageWidth="827" pageHeight="1169" math="0" shadow="0">
      <root>
        <mxCell id="0" />
        <mxCell id="1" parent="0" />
        <mxCell id="E7dE-oKjduyVLOZ-jFwI-26" style="edgeStyle=orthogonalEdgeStyle;rounded=0;sketch=1;hachureGap=4;jiggle=2;curveFitting=1;orthogonalLoop=1;jettySize=auto;html=1;entryX=0.5;entryY=0;entryDx=0;entryDy=0;fontFamily=Architects Daughter;fontSource=https%3A%2F%2Ffonts.googleapis.com%2Fcss%3Ffamily%3DArchitects%2BDaughter;" edge="1" parent="1" source="2" target="4">
          <mxGeometry relative="1" as="geometry">
            <Array as="points">
              <mxPoint x="390" y="170" />
              <mxPoint x="530" y="170" />
            </Array>
          </mxGeometry>
        </mxCell>
        <mxCell id="2" value="Conceitos" style="rounded=0;whiteSpace=wrap;html=1;sketch=1;curveFitting=1;jiggle=2;" parent="1" vertex="1">
          <mxGeometry x="290" y="113" width="200" height="50" as="geometry" />
        </mxCell>
        <mxCell id="E7dE-oKjduyVLOZ-jFwI-29" style="edgeStyle=orthogonalEdgeStyle;rounded=0;sketch=1;hachureGap=4;jiggle=2;curveFitting=1;orthogonalLoop=1;jettySize=auto;html=1;entryX=0.5;entryY=0;entryDx=0;entryDy=0;fontFamily=Architects Daughter;fontSource=https%3A%2F%2Ffonts.googleapis.com%2Fcss%3Ffamily%3DArchitects%2BDaughter;" edge="1" parent="1" source="3" target="5">
          <mxGeometry relative="1" as="geometry">
            <Array as="points">
              <mxPoint x="240" y="250" />
              <mxPoint x="390" y="250" />
            </Array>
          </mxGeometry>
        </mxCell>
        <mxCell id="3" value="Objetivos" style="rounded=0;whiteSpace=wrap;html=1;sketch=1;curveFitting=1;jiggle=2;" parent="1" vertex="1">
          <mxGeometry x="140" y="190" width="200" height="50" as="geometry" />
        </mxCell>
        <mxCell id="E7dE-oKjduyVLOZ-jFwI-28" style="edgeStyle=orthogonalEdgeStyle;rounded=0;sketch=1;hachureGap=4;jiggle=2;curveFitting=1;orthogonalLoop=1;jettySize=auto;html=1;fontFamily=Architects Daughter;fontSource=https%3A%2F%2Ffonts.googleapis.com%2Fcss%3Ffamily%3DArchitects%2BDaughter;" edge="1" parent="1" source="4" target="5">
          <mxGeometry relative="1" as="geometry">
            <Array as="points">
              <mxPoint x="530" y="247" />
              <mxPoint x="390" y="247" />
            </Array>
          </mxGeometry>
        </mxCell>
        <mxCell id="4" value="Arquitetura" style="rounded=0;whiteSpace=wrap;html=1;sketch=1;curveFitting=1;jiggle=2;" parent="1" vertex="1">
          <mxGeometry x="430" y="190" width="200" height="50" as="geometry" />
        </mxCell>
        <mxCell id="E7dE-oKjduyVLOZ-jFwI-27" style="edgeStyle=orthogonalEdgeStyle;rounded=0;sketch=1;hachureGap=4;jiggle=2;curveFitting=1;orthogonalLoop=1;jettySize=auto;html=1;fontFamily=Architects Daughter;fontSource=https%3A%2F%2Ffonts.googleapis.com%2Fcss%3Ffamily%3DArchitects%2BDaughter;" edge="1" parent="1" source="5" target="6">
          <mxGeometry relative="1" as="geometry" />
        </mxCell>
        <mxCell id="5" value="Setup Inicial" style="rounded=0;whiteSpace=wrap;html=1;sketch=1;curveFitting=1;jiggle=2;" parent="1" vertex="1">
          <mxGeometry x="290" y="267" width="200" height="50" as="geometry" />
        </mxCell>
        <mxCell id="E7dE-oKjduyVLOZ-jFwI-20" style="edgeStyle=orthogonalEdgeStyle;rounded=0;orthogonalLoop=1;jettySize=auto;html=1;entryX=0.5;entryY=0;entryDx=0;entryDy=0;" edge="1" parent="1" source="6" target="8">
          <mxGeometry relative="1" as="geometry" />
        </mxCell>
        <mxCell id="6" value="ALB + Route" style="rounded=0;whiteSpace=wrap;html=1;sketch=1;curveFitting=1;jiggle=2;" parent="1" vertex="1">
          <mxGeometry x="290" y="339" width="200" height="50" as="geometry" />
        </mxCell>
        <mxCell id="7" value="Shared" style="rounded=0;whiteSpace=wrap;html=1;sketch=1;curveFitting=1;jiggle=2;" parent="1" vertex="1">
          <mxGeometry x="540" y="339" width="200" height="50" as="geometry" />
        </mxCell>
        <mxCell id="8" value="AKS Cluster" style="rounded=0;whiteSpace=wrap;html=1;sketch=1;curveFitting=1;jiggle=2;" parent="1" vertex="1">
          <mxGeometry x="150" y="428" width="200" height="50" as="geometry" />
        </mxCell>
        <mxCell id="E7dE-oKjduyVLOZ-jFwI-24" style="edgeStyle=orthogonalEdgeStyle;rounded=0;sketch=1;hachureGap=4;jiggle=2;curveFitting=1;orthogonalLoop=1;jettySize=auto;html=1;fontFamily=Architects Daughter;fontSource=https%3A%2F%2Ffonts.googleapis.com%2Fcss%3Ffamily%3DArchitects%2BDaughter;" edge="1" parent="1" source="9">
          <mxGeometry relative="1" as="geometry">
            <mxPoint x="370" y="520" as="targetPoint" />
            <Array as="points">
              <mxPoint x="520" y="500" />
              <mxPoint x="371" y="500" />
            </Array>
          </mxGeometry>
        </mxCell>
        <mxCell id="9" value="OPENSHIFIT" style="rounded=0;whiteSpace=wrap;html=1;sketch=1;curveFitting=1;jiggle=2;" parent="1" vertex="1">
          <mxGeometry x="420" y="427" width="200" height="50" as="geometry" />
        </mxCell>
        <mxCell id="10" value="Deployment" style="rounded=0;whiteSpace=wrap;html=1;sketch=1;curveFitting=1;jiggle=2;" parent="1" vertex="1">
          <mxGeometry x="280" y="519" width="200" height="50" as="geometry" />
        </mxCell>
        <mxCell id="14" style="edgeStyle=none;sketch=1;hachureGap=4;jiggle=2;curveFitting=1;html=1;entryX=0;entryY=0.5;entryDx=0;entryDy=0;fontFamily=Architects Daughter;fontSource=https%3A%2F%2Ffonts.googleapis.com%2Fcss%3Ffamily%3DArchitects%2BDaughter;fontSize=16;" parent="1" source="11" target="13" edge="1">
          <mxGeometry relative="1" as="geometry" />
        </mxCell>
        <mxCell id="15" style="edgeStyle=orthogonalEdgeStyle;sketch=1;hachureGap=4;jiggle=2;curveFitting=1;html=1;entryX=0;entryY=0.5;entryDx=0;entryDy=0;fontFamily=Architects Daughter;fontSource=https%3A%2F%2Ffonts.googleapis.com%2Fcss%3Ffamily%3DArchitects%2BDaughter;fontSize=16;" parent="1" source="11" target="12" edge="1">
          <mxGeometry relative="1" as="geometry" />
        </mxCell>
        <mxCell id="E7dE-oKjduyVLOZ-jFwI-17" style="edgeStyle=orthogonalEdgeStyle;rounded=0;orthogonalLoop=1;jettySize=auto;html=1;entryX=0;entryY=0.5;entryDx=0;entryDy=0;" edge="1" parent="1" source="11" target="16">
          <mxGeometry relative="1" as="geometry" />
        </mxCell>
        <mxCell id="E7dE-oKjduyVLOZ-jFwI-18" style="edgeStyle=orthogonalEdgeStyle;rounded=0;orthogonalLoop=1;jettySize=auto;html=1;entryX=0;entryY=0.5;entryDx=0;entryDy=0;sketch=1;curveFitting=1;jiggle=2;" edge="1" parent="1" source="11" target="E7dE-oKjduyVLOZ-jFwI-16">
          <mxGeometry relative="1" as="geometry" />
        </mxCell>
        <mxCell id="11" value="Terraform Module" style="rounded=0;whiteSpace=wrap;html=1;sketch=1;curveFitting=1;jiggle=2;" parent="1" vertex="1">
          <mxGeometry x="280" y="599" width="200" height="50" as="geometry" />
        </mxCell>
        <mxCell id="12" value="Task Definitions" style="rounded=0;whiteSpace=wrap;html=1;sketch=1;curveFitting=1;jiggle=2;" parent="1" vertex="1">
          <mxGeometry x="540" y="519" width="200" height="50" as="geometry" />
        </mxCell>
        <mxCell id="13" value="Services" style="rounded=0;whiteSpace=wrap;html=1;sketch=1;curveFitting=1;jiggle=2;" parent="1" vertex="1">
          <mxGeometry x="540" y="599" width="200" height="50" as="geometry" />
        </mxCell>
        <mxCell id="16" value="IAM" style="rounded=0;whiteSpace=wrap;html=1;sketch=1;curveFitting=1;jiggle=2;" parent="1" vertex="1">
          <mxGeometry x="540" y="670" width="200" height="50" as="geometry" />
        </mxCell>
        <mxCell id="E7dE-oKjduyVLOZ-jFwI-16" value="Autoscaling" style="rounded=0;whiteSpace=wrap;html=1;sketch=1;curveFitting=1;jiggle=2;" vertex="1" parent="1">
          <mxGeometry x="540" y="740" width="200" height="50" as="geometry" />
        </mxCell>
        <mxCell id="E7dE-oKjduyVLOZ-jFwI-19" style="edgeStyle=orthogonalEdgeStyle;rounded=0;orthogonalLoop=1;jettySize=auto;html=1;entryX=0.45;entryY=-0.14;entryDx=0;entryDy=0;entryPerimeter=0;" edge="1" parent="1" source="6" target="9">
          <mxGeometry relative="1" as="geometry" />
        </mxCell>
        <mxCell id="E7dE-oKjduyVLOZ-jFwI-30" style="edgeStyle=orthogonalEdgeStyle;rounded=0;sketch=1;hachureGap=4;jiggle=2;curveFitting=1;orthogonalLoop=1;jettySize=auto;html=1;fontFamily=Architects Daughter;fontSource=https%3A%2F%2Ffonts.googleapis.com%2Fcss%3Ffamily%3DArchitects%2BDaughter;" edge="1" parent="1" source="E7dE-oKjduyVLOZ-jFwI-21" target="E7dE-oKjduyVLOZ-jFwI-22">
          <mxGeometry relative="1" as="geometry" />
        </mxCell>
        <mxCell id="E7dE-oKjduyVLOZ-jFwI-21" value="Storage" style="rounded=0;whiteSpace=wrap;html=1;sketch=1;curveFitting=1;jiggle=2;" vertex="1" parent="1">
          <mxGeometry x="280" y="790" width="200" height="50" as="geometry" />
        </mxCell>
        <mxCell id="E7dE-oKjduyVLOZ-jFwI-43" style="edgeStyle=orthogonalEdgeStyle;rounded=0;sketch=1;hachureGap=4;jiggle=2;curveFitting=1;orthogonalLoop=1;jettySize=auto;html=1;entryX=0.5;entryY=0;entryDx=0;entryDy=0;fontFamily=Architects Daughter;fontSource=https%3A%2F%2Ffonts.googleapis.com%2Fcss%3Ffamily%3DArchitects%2BDaughter;" edge="1" parent="1" source="E7dE-oKjduyVLOZ-jFwI-22" target="E7dE-oKjduyVLOZ-jFwI-31">
          <mxGeometry relative="1" as="geometry" />
        </mxCell>
        <mxCell id="E7dE-oKjduyVLOZ-jFwI-22" value="Secret" style="rounded=0;whiteSpace=wrap;html=1;sketch=1;curveFitting=1;jiggle=2;" vertex="1" parent="1">
          <mxGeometry x="280" y="867" width="200" height="50" as="geometry" />
        </mxCell>
        <mxCell id="E7dE-oKjduyVLOZ-jFwI-23" style="edgeStyle=orthogonalEdgeStyle;rounded=0;sketch=1;hachureGap=4;jiggle=2;curveFitting=1;orthogonalLoop=1;jettySize=auto;html=1;entryX=0.45;entryY=0.04;entryDx=0;entryDy=0;entryPerimeter=0;fontFamily=Architects Daughter;fontSource=https%3A%2F%2Ffonts.googleapis.com%2Fcss%3Ffamily%3DArchitects%2BDaughter;" edge="1" parent="1" source="8" target="10">
          <mxGeometry relative="1" as="geometry" />
        </mxCell>
        <mxCell id="E7dE-oKjduyVLOZ-jFwI-25" style="edgeStyle=orthogonalEdgeStyle;rounded=0;sketch=1;hachureGap=4;jiggle=2;curveFitting=1;orthogonalLoop=1;jettySize=auto;html=1;entryX=0.465;entryY=-0.06;entryDx=0;entryDy=0;entryPerimeter=0;fontFamily=Architects Daughter;fontSource=https%3A%2F%2Ffonts.googleapis.com%2Fcss%3Ffamily%3DArchitects%2BDaughter;" edge="1" parent="1" source="2" target="3">
          <mxGeometry relative="1" as="geometry">
            <Array as="points">
              <mxPoint x="390" y="170" />
              <mxPoint x="233" y="170" />
            </Array>
          </mxGeometry>
        </mxCell>
        <mxCell id="E7dE-oKjduyVLOZ-jFwI-37" style="edgeStyle=orthogonalEdgeStyle;rounded=0;sketch=1;hachureGap=4;jiggle=2;curveFitting=1;orthogonalLoop=1;jettySize=auto;html=1;entryX=0;entryY=0.5;entryDx=0;entryDy=0;fontFamily=Architects Daughter;fontSource=https%3A%2F%2Ffonts.googleapis.com%2Fcss%3Ffamily%3DArchitects%2BDaughter;" edge="1" parent="1" source="E7dE-oKjduyVLOZ-jFwI-31" target="E7dE-oKjduyVLOZ-jFwI-32">
          <mxGeometry relative="1" as="geometry" />
        </mxCell>
        <mxCell id="E7dE-oKjduyVLOZ-jFwI-38" style="edgeStyle=orthogonalEdgeStyle;rounded=0;sketch=1;hachureGap=4;jiggle=2;curveFitting=1;orthogonalLoop=1;jettySize=auto;html=1;fontFamily=Architects Daughter;fontSource=https%3A%2F%2Ffonts.googleapis.com%2Fcss%3Ffamily%3DArchitects%2BDaughter;" edge="1" parent="1" source="E7dE-oKjduyVLOZ-jFwI-31" target="E7dE-oKjduyVLOZ-jFwI-33">
          <mxGeometry relative="1" as="geometry" />
        </mxCell>
        <mxCell id="E7dE-oKjduyVLOZ-jFwI-39" style="edgeStyle=orthogonalEdgeStyle;rounded=0;sketch=1;hachureGap=4;jiggle=2;curveFitting=1;orthogonalLoop=1;jettySize=auto;html=1;entryX=0;entryY=0.5;entryDx=0;entryDy=0;fontFamily=Architects Daughter;fontSource=https%3A%2F%2Ffonts.googleapis.com%2Fcss%3Ffamily%3DArchitects%2BDaughter;" edge="1" parent="1" source="E7dE-oKjduyVLOZ-jFwI-31" target="E7dE-oKjduyVLOZ-jFwI-34">
          <mxGeometry relative="1" as="geometry" />
        </mxCell>
        <mxCell id="E7dE-oKjduyVLOZ-jFwI-40" style="edgeStyle=orthogonalEdgeStyle;rounded=0;sketch=1;hachureGap=4;jiggle=2;curveFitting=1;orthogonalLoop=1;jettySize=auto;html=1;entryX=0;entryY=0.5;entryDx=0;entryDy=0;fontFamily=Architects Daughter;fontSource=https%3A%2F%2Ffonts.googleapis.com%2Fcss%3Ffamily%3DArchitects%2BDaughter;" edge="1" parent="1" source="E7dE-oKjduyVLOZ-jFwI-31" target="E7dE-oKjduyVLOZ-jFwI-35">
          <mxGeometry relative="1" as="geometry" />
        </mxCell>
        <mxCell id="E7dE-oKjduyVLOZ-jFwI-41" style="edgeStyle=orthogonalEdgeStyle;rounded=0;sketch=1;hachureGap=4;jiggle=2;curveFitting=1;orthogonalLoop=1;jettySize=auto;html=1;entryX=0;entryY=0.5;entryDx=0;entryDy=0;fontFamily=Architects Daughter;fontSource=https%3A%2F%2Ffonts.googleapis.com%2Fcss%3Ffamily%3DArchitects%2BDaughter;" edge="1" parent="1" source="E7dE-oKjduyVLOZ-jFwI-31" target="E7dE-oKjduyVLOZ-jFwI-36">
          <mxGeometry relative="1" as="geometry" />
        </mxCell>
        <mxCell id="E7dE-oKjduyVLOZ-jFwI-44" style="edgeStyle=orthogonalEdgeStyle;rounded=0;sketch=1;hachureGap=4;jiggle=2;curveFitting=1;orthogonalLoop=1;jettySize=auto;html=1;fontFamily=Architects Daughter;fontSource=https%3A%2F%2Ffonts.googleapis.com%2Fcss%3Ffamily%3DArchitects%2BDaughter;" edge="1" parent="1" source="E7dE-oKjduyVLOZ-jFwI-31" target="E7dE-oKjduyVLOZ-jFwI-42">
          <mxGeometry relative="1" as="geometry" />
        </mxCell>
        <mxCell id="E7dE-oKjduyVLOZ-jFwI-31" value="Roteamento" style="rounded=0;whiteSpace=wrap;html=1;sketch=1;curveFitting=1;jiggle=2;" vertex="1" parent="1">
          <mxGeometry x="280" y="961" width="200" height="50" as="geometry" />
        </mxCell>
        <mxCell id="E7dE-oKjduyVLOZ-jFwI-32" value="Roteamento Interno" style="rounded=0;whiteSpace=wrap;html=1;sketch=1;curveFitting=1;jiggle=2;" vertex="1" parent="1">
          <mxGeometry x="540" y="900" width="200" height="50" as="geometry" />
        </mxCell>
        <mxCell id="E7dE-oKjduyVLOZ-jFwI-33" value="Roteamento Externo" style="rounded=0;whiteSpace=wrap;html=1;sketch=1;curveFitting=1;jiggle=2;" vertex="1" parent="1">
          <mxGeometry x="540" y="961" width="200" height="50" as="geometry" />
        </mxCell>
        <mxCell id="E7dE-oKjduyVLOZ-jFwI-34" value="Service Discovery" style="rounded=0;whiteSpace=wrap;html=1;sketch=1;curveFitting=1;jiggle=2;" vertex="1" parent="1">
          <mxGeometry x="540" y="1024" width="200" height="50" as="geometry" />
        </mxCell>
        <mxCell id="E7dE-oKjduyVLOZ-jFwI-35" value="API Managment" style="rounded=0;whiteSpace=wrap;html=1;sketch=1;curveFitting=1;jiggle=2;" vertex="1" parent="1">
          <mxGeometry x="540" y="1086" width="200" height="50" as="geometry" />
        </mxCell>
        <mxCell id="E7dE-oKjduyVLOZ-jFwI-36" value="APP Mesh" style="rounded=0;whiteSpace=wrap;html=1;sketch=1;curveFitting=1;jiggle=2;" vertex="1" parent="1">
          <mxGeometry x="540" y="1148" width="200" height="50" as="geometry" />
        </mxCell>
        <mxCell id="E7dE-oKjduyVLOZ-jFwI-46" style="edgeStyle=orthogonalEdgeStyle;rounded=0;sketch=1;hachureGap=4;jiggle=2;curveFitting=1;orthogonalLoop=1;jettySize=auto;html=1;entryX=0;entryY=0.5;entryDx=0;entryDy=0;fontFamily=Architects Daughter;fontSource=https%3A%2F%2Ffonts.googleapis.com%2Fcss%3Ffamily%3DArchitects%2BDaughter;" edge="1" parent="1" source="E7dE-oKjduyVLOZ-jFwI-42" target="E7dE-oKjduyVLOZ-jFwI-45">
          <mxGeometry relative="1" as="geometry" />
        </mxCell>
        <mxCell id="E7dE-oKjduyVLOZ-jFwI-49" style="edgeStyle=orthogonalEdgeStyle;rounded=0;sketch=1;hachureGap=4;jiggle=2;curveFitting=1;orthogonalLoop=1;jettySize=auto;html=1;entryX=0;entryY=0.5;entryDx=0;entryDy=0;fontFamily=Architects Daughter;fontSource=https%3A%2F%2Ffonts.googleapis.com%2Fcss%3Ffamily%3DArchitects%2BDaughter;" edge="1" parent="1" source="E7dE-oKjduyVLOZ-jFwI-42" target="E7dE-oKjduyVLOZ-jFwI-47">
          <mxGeometry relative="1" as="geometry" />
        </mxCell>
        <mxCell id="E7dE-oKjduyVLOZ-jFwI-50" style="edgeStyle=orthogonalEdgeStyle;rounded=0;sketch=1;hachureGap=4;jiggle=2;curveFitting=1;orthogonalLoop=1;jettySize=auto;html=1;entryX=0;entryY=0.5;entryDx=0;entryDy=0;fontFamily=Architects Daughter;fontSource=https%3A%2F%2Ffonts.googleapis.com%2Fcss%3Ffamily%3DArchitects%2BDaughter;" edge="1" parent="1" source="E7dE-oKjduyVLOZ-jFwI-42" target="E7dE-oKjduyVLOZ-jFwI-48">
          <mxGeometry relative="1" as="geometry" />
        </mxCell>
        <mxCell id="E7dE-oKjduyVLOZ-jFwI-42" value="Monitoramento e Observabilidade" style="rounded=0;whiteSpace=wrap;html=1;sketch=1;curveFitting=1;jiggle=2;" vertex="1" parent="1">
          <mxGeometry x="281" y="1220" width="200" height="50" as="geometry" />
        </mxCell>
        <mxCell id="E7dE-oKjduyVLOZ-jFwI-45" value="Metricas" style="rounded=0;whiteSpace=wrap;html=1;sketch=1;curveFitting=1;jiggle=2;" vertex="1" parent="1">
          <mxGeometry x="520" y="1220" width="200" height="50" as="geometry" />
        </mxCell>
        <mxCell id="E7dE-oKjduyVLOZ-jFwI-47" value="Logs" style="rounded=0;whiteSpace=wrap;html=1;sketch=1;curveFitting=1;jiggle=2;" vertex="1" parent="1">
          <mxGeometry x="520" y="1280" width="200" height="50" as="geometry" />
        </mxCell>
        <mxCell id="E7dE-oKjduyVLOZ-jFwI-48" value="Traces" style="rounded=0;whiteSpace=wrap;html=1;sketch=1;curveFitting=1;jiggle=2;" vertex="1" parent="1">
          <mxGeometry x="520" y="1340" width="200" height="50" as="geometry" />
        </mxCell>
      </root>
    </mxGraphModel>
  </diagram>
</mxfile>
